<svg width="121" height="41" viewBox="0 0 121 41" fill="none" xmlns="http://www.w3.org/2000/svg">
<rect x="2" y="2" width="117.456" height="37.024" rx="8.51127" fill="#3CC048"/>
<path d="M5.83007 2L115.2 2" stroke="black" stroke-width="2.97895"/>
<path d="M116.477 3.27637V6.25531" stroke="black" stroke-width="2.97895"/>
<path d="M119.456 6.25586V34.7686" stroke="black" stroke-width="2.97895"/>
<path d="M116.477 34.7686V37.7475" stroke="black" stroke-width="2.97895"/>
<path d="M115.2 39.0244L5.83007 39.0244" stroke="black" stroke-width="2.55338"/>
<path d="M2 35.194V5.83008" stroke="black" stroke-width="2.97895"/>
<path d="M4.5533 34.7725V37.8743" stroke="black" stroke-width="2.97895"/>
<path d="M4.55338 2.85156V5.83051" stroke="black" stroke-width="2.97895"/>
<path d="M15.624 28.288V26.128H13.44V15.04H15.624V12.856H22.392V15.04H24.6V19.6H22.392V21.52H24.6V26.128H22.392V28.288H15.624ZM15.864 25.888H22.152V21.76H17.784V19.384H22.152V15.28H15.864V25.888ZM29.4225 28.288V26.128H27.2385V15.04H29.4225V12.856H36.1905V15.04H38.3985V26.128H36.1905V28.288H29.4225ZM29.6625 25.888H35.9505V15.28H29.6625V25.888ZM43.221 28.288V26.128H41.037V15.04H43.221V12.856H49.989V15.04H52.197V26.128H49.989V28.288H43.221ZM43.461 25.888H49.749V15.28H43.461V25.888ZM54.8355 28.288V15.04H57.0195V12.856H59.4195V15.28H57.2595V19.384H59.1795V17.2H61.3875V15.04H63.5475V12.856H65.9955V15.28H63.7875V17.44H61.6275V19.6H59.4195V21.52H61.6275V23.704H63.7875V25.888H65.9955V28.288H63.5475V26.128H61.3875V23.944H59.1795V21.76H57.2595V28.288H54.8355ZM77.5187 28.288V15.28H75.5987V17.44H73.1747V15.04H75.3587V12.856H82.1267V15.04H84.3347V17.44H81.8867V15.28H79.9667V28.288H77.5187ZM86.9732 28.288V25.888H89.1572V15.28H86.9732V12.856H93.7652V15.28H91.5572V25.888H93.7652V28.288H86.9732ZM96.4123 28.288V12.856H103.204V15.04H105.364V17.2H107.572V23.944H105.364V26.128H103.204V28.288H96.4123ZM98.8363 25.888H102.964V23.704H105.124V17.44H102.964V15.28H98.8363V25.888Z" fill="black"/>
</svg>
