<svg width="124" height="110" viewBox="0 0 124 110" fill="none" xmlns="http://www.w3.org/2000/svg">
<path d="M22.3242 0.0175781L26.1904 1.06348L26.2402 1.07715L26.2861 1.10059L31.2266 3.61133L31.2334 3.61426L31.2393 3.61719L36.6094 6.54688L36.6357 6.56152L36.6602 6.5791L39.8818 8.87988L39.9131 8.90234L39.9404 8.92871L42.7324 11.6484L42.7578 11.6738L42.7803 11.7021L44.0684 13.375L44.0889 13.4014L44.1055 13.4307L46.0391 16.7773L46.0771 16.8447L46.0938 16.9199L46.7383 19.8496L46.75 19.9023V23.3203L46.749 23.3359L46.5342 26.6836L46.5312 26.7305L46.5195 26.7764L45.875 29.2861L45.8652 29.3262L45.8486 29.3633L44.5596 32.293L44.5391 32.3389L44.5098 32.3809L42.5762 35.1006L42.5449 35.1445L42.5049 35.1807L39.7764 37.6611L46.7178 41.9111L50.3076 43.8535L50.7031 43.5967L53.0488 41.9346L53.0596 41.9268L56.4961 39.626L56.5068 39.6191L60.8027 36.8994L60.8223 36.8877L64.4736 34.7959L64.4834 34.7891L70.2832 31.6514L70.2959 31.6445L70.3096 31.6387L75.6787 29.1279L75.6963 29.1201L80.6357 27.0283L80.6562 27.0195L80.6768 27.0127L84.5332 25.7607L87.54 24.7148L87.5498 24.7119L93.9932 22.6191L94.0068 22.6152L94.0195 22.6113L98.7451 21.3564L98.7607 21.3525L103.271 20.3066L107.776 19.2617L109.494 18.8438L109.553 18.8291H116.101L116.144 18.8369L118.506 19.2549L118.575 19.2676L118.638 19.2979L121.645 20.7627L121.756 20.8164L121.829 20.916L123.086 22.6299L122.944 22.9053L122.516 23.7422L122.449 23.8691L122.326 23.9434L110.728 30.8467L110.724 30.8496L92.0371 41.7285L92.0342 41.7305L77.4297 50.0967L77.4307 50.0977L69.1182 54.917L77.207 59.4795H77.208L80.2148 61.1533L80.2217 61.1572L80.2275 61.1602L84.0869 63.458L87.7383 65.5498L87.7393 65.5508L92.4639 68.2705L92.4668 68.2715L97.835 71.4092L104.706 75.3828L112.004 79.5645L116.515 82.0742L118.442 83.1182L118.456 83.125L118.47 83.1338L121.477 85.0166L121.503 85.0332L121.526 85.0527L122.815 86.0986L123 86.248V87.2988L122.88 87.4395L121.806 88.6943L121.746 88.7637L121.666 88.8076L118.229 90.6904L118.117 90.752H109.556L109.501 90.7402L105.85 89.9033L105.847 89.9023L99.6182 88.4375L99.6143 88.4365L94.459 87.1816L94.4414 87.1768L94.4229 87.1709L90.5566 85.916V85.915L86.4834 84.6631L86.4756 84.6611L82.6094 83.4053L82.5957 83.4014L82.583 83.3955L77.2129 81.3037L77.1875 81.2939L77.1641 81.2812L73.9453 79.6084V79.6094L69.4346 77.3086L69.4131 77.2969L58.459 71.0205L58.4375 71.0078L58.418 70.9941L50.7344 65.5322L40.1943 71.7305L41.002 72.5166L42.4893 73.7588L42.5312 73.7939L42.5654 73.8379L44.498 76.3486L44.5342 76.3955L44.5586 76.4482L46.0615 79.7959L46.0791 79.835L46.0898 79.877L46.9492 83.2236L46.9609 83.2695L46.9639 83.3164L47.1787 86.6641L47.1797 86.6797V89.7119L47.1504 89.7939L45.6465 93.9785L45.6387 94.001L45.6279 94.0234L44.3389 96.7432L44.3145 96.7949L44.2783 96.8408L42.7744 98.7236L42.748 98.7568L42.7168 98.7852L40.1396 101.086L40.1055 101.116L40.0674 101.14L32.5498 105.742L32.5391 105.748L32.5293 105.754L29.0947 107.635L29.0957 107.636L27.5918 108.473L27.5576 108.491L27.5205 108.505L25.8018 109.133L23.6641 109.966L23.5762 110H16.7725L16.7217 109.989L13.7148 109.361L13.667 109.352L13.6221 109.333L8.68164 107.24L8.61914 107.214L8.56543 107.171L6.20215 105.288L6.18262 105.272L6.16504 105.256L3.1582 102.326L3.11426 102.283L3.08105 102.23L1.79297 100.139L1.78223 100.122L1.77344 100.104L0.914062 98.4307L0.897461 98.3984L0.885742 98.3643L0.456055 97.1094L0.443359 97.0713L0.436523 97.0312L0.00683594 94.5205L0 94.4795V89.7881L0.00878906 89.7422L0.438477 87.4404L0.446289 87.3955L0.462891 87.3525L1.10547 85.6836L1.96484 83.3828L1.97168 83.3643L1.98047 83.3457L3.05371 81.0449L3.08008 80.9893L3.11816 80.9424L5.48047 78.0137L5.50586 77.9824L5.53516 77.9551L8.32812 75.4453L8.37207 75.4053L8.42383 75.377L12.29 73.2852L19.1611 69.5205L19.1826 69.5088L22.1699 68.0537L25.3496 66.1953L28.1055 64.1309L30.207 62.29L32.5439 59.3936L32.5732 59.3574L32.6074 59.3281L37.5615 55.0801L32.1543 49.8145L32.0801 49.7412L32.041 49.6455L31.6504 48.6953L29.583 46.6816L26.8359 44.2109L23.0244 41.9434L14.8682 37.5527L14.8623 37.5488L8.84863 34.2021L8.80859 34.1797L8.77344 34.1504L5.98145 31.8496L5.94922 31.8232L5.92188 31.791L3.55957 29.0713L3.52344 29.0312L3.49805 28.9844L1.7793 25.8457L1.75195 25.7959L1.7373 25.7402L0.448242 21.1377L0.426758 21.0625L0.429688 20.9844L0.644531 15.127L0.646484 15.0732L0.660156 15.0205L1.51953 11.6729L1.5332 11.6191L1.55859 11.5693L3.0625 8.64062L3.08594 8.59473L3.11816 8.55469L5.48047 5.62598L5.51367 5.58496L5.55469 5.55176L8.13184 3.45898L8.17285 3.42578L8.2207 3.40137L13.1611 0.890625L13.2158 0.863281L13.2754 0.849609L16.9268 0.0126953L16.9824 0H22.2598L22.3242 0.0175781ZM36.7646 82.0703C34.2983 76.4757 26.3602 74.8188 19.0342 78.3701C11.7082 81.9216 7.76901 89.336 10.2354 94.9307C12.7018 100.525 20.6399 102.181 27.9658 98.6299C35.2914 95.0785 39.2305 87.6648 36.7646 82.0703ZM27.1807 10.2803C20.3298 7.64039 13.1468 9.7266 11.1377 14.9404C9.12863 20.1542 13.0536 26.5212 19.9043 29.1611C26.7552 31.801 33.9382 29.7139 35.9473 24.5C37.9559 19.2863 34.0311 12.9202 27.1807 10.2803Z" fill="#3CC048"/>
</svg>
